# xmcd
#
# Track frame offsets:
#	182
#	13450
#	35052
#	53217
#	69592
#	98397
#	111235
#	130970
#	159395
#	184215
#	198737
#	209840
#	222750
#	237517
#	255045
#	269862
#	286515
#
# Disc length: 4076
#
# Revision: 10
# Processed by: cddbd v1.5.1PL0 Copyright (c) Steve Scherf et al.
# Submitted via: ExactAudioCopy v0.95a5
# Normalized: r9:DSWAP,DSETVAR1,TDELIM( - )
#
DISCID=070fea11
DTITLE=Various Artist - Red Hot and Country
DYEAR=1994
DGENRE=Country
TTITLE0=Bogguss, Krauss and Matthea with Crosby, Stills and Nash - Teach Your Children
TTITLE1=Sammy Kershaw - Fire And Rain
TTITLE2=Brooks and Dunn With Johnny Cash - Folsom Prison Blues
TTITLE3=Kathy Matthea With Jackson Brown - Rock Me On The Water
TTITLE4=Carl Perkins, Duane eddy and The Mavericks - Matchbox
TTITLE5=Jimmy Dale Gilmore With Willie Nelson - Crazy
TTITLE6=Mary Chapin Carpenter - Willie Short
TTITLE7=Johnny Cash - Forever Young
TTITLE8=Nanci Griffith With Jimmy Webb - If These Old Walls Could Speak
TTITLE9=Marty Stuart With Jerry and Tammy Sullivan - Up Above My Head/Blind Bartimus
TTITLE10=Dolly Parton - You Gotta Be My Baby
TTITLE11=Radney Foster - Close Up The Honky Tonks
TTITLE12=Mark Chesnutt - Goodbye Comes Hard For Me
TTITLE13=Billy Ray Cyrus - Pictures Don't Lie
TTITLE14=Patty Loveless - When I Reach The Place I'm Going
TTITLE15=Wilco With Syd Straw - The T.B. Is Whipping Me
TTITLE16=Randy Scruggs With Earl Scruggs and Doc Watson - Keep On The Sunny Side
EXTD=YEAR: 1994 ID3G: 2
EXTT0=Suzy Bogguss, Alison Krauss and Kathy Mattea With Crosby, Stills and Nash
EXTT1=Sammy Kershaw
EXTT2=Brooks and Dunn With Johnny Cash
EXTT3=Kathy Mattea With Jackson Browne
EXTT4=Carl Perkins, Duane Eddy and The Mavericks
EXTT5=Jimmy Dale Gilmore With Willie Nelson
EXTT6=Mary Chapin Carpenter
EXTT7=Johnny Cash
EXTT8=Nanci Griffith With Jimmy Webb
EXTT9=Up Above My Head
EXTT10=Dolly Parton
EXTT11=Radney Foster
EXTT12=Mark Chesnutt
EXTT13=Billy Ray Cyrus
EXTT14=Patty Loveless
EXTT15=Wilco With Syd Straw
EXTT16=Randy Scruggs With Earl Scruggs and Doc Watson
PLAYORDER=
